<svg xmlns="http://www.w3.org/2000/svg" viewBox="0 0 677.22 371.86">
  <title>rmp logo full r2</title>
  <g>
    <path d="M684,329c.1-15.47.19-30.9.29-46.37l.09-13.8c-19-3.2-38.41-4.19-57.64-4.41,0-2.4.09-4.8.12-7.16,0-2.53,1.09-4.89,1.86-7.32,1.4-4.38,2.84-8.76,4.28-13.13a220.68,220.68,0,0,0,6.36-21.54c.32-1.57,1-3.42.8-5-.16-1.4-1.57-4.06-3.07-4.44s-4,2-5.34,2.84a68.51,68.51,0,0,0-6.29,5c-3.36,3-3.29,5.4-3.26,9.68a106.24,106.24,0,0,1-.58,13.23c-.76,6-2.14,11.6-2.27,17.7,0,1.86,1,9.69-.28,10.42s-5.12,0-6.55,0c-1.06,0-3.9.52-4.61-.22-.92-1-.22-4.06-.19-5.21.19-7.22,2.11-14.25,2.81-21.47,1-10.48,1.44-21.25,3.52-31.57,2-9.85,4.44-20.14,10.8-28.19,1.21.89.86,4,2.94,4.09,1.37.06,3-2.62,3.71-3.48,2.74-3.58,4.6-7.83,7.09-11.57,1.22,1.34.48,4.57.45,6.36,0,.93-.58,5.4,0,5.85,2,1.5,4.92-4.48,6-5.56.64.51-2.08,11.4-.1,11.12,1.47-.23,3.58-6.49,4-7.61a39.15,39.15,0,0,0,3.26-14.83c0-6-1.18-12-2-17.92s-1.76-11.92-2.75-17.87a74.72,74.72,0,0,0-1.41-8c-.86-3-1.6-3.35-4.5-2.75-4.19.9-8.31,3.23-12.69,2.75-4.54-.48-6.07-5.69-5.94-9.62,5,2.27,9.3.52,13.61-2.36,2.81-1.85,9.43-6.33,12.14-2.46,1.38-1.34.71-3.87,2.75-4.48.7-.22,1.31.36,1.82-.22s.1-2.68,0-3.32c-.32-2.18-.92-3.87,1-5.47s5.15-1.72,7.45-2.81c-.71-2.4-13.65,4.47-16,2.81-1.47-1-.61-1.69.16-3.1.38-.67,1.21-2.74,1.82-3.19.29-.23,1-.13,1.37-.26,3.07-1,6.2-1.63,9.21-3a55.11,55.11,0,0,1,7.06-2.68c2.87-.8,5.75-.74,8-2.91C677.88,71,678.52,63,679.6,57c-1.37,3.49-2.49,7.13-4.15,10.48A18.28,18.28,0,0,1,671.68,73c-1.95,1.7-5.34,1.73-7.89,2.46-3.93,1.15-7.74,2.69-11.73,3.65-2.14.51-2.69.57-2.24-1.73a40.76,40.76,0,0,1,2.46-7.09c1.25-3.07,2.59-6.46,4.7-9,3-3.7,7.29-4.53,11.09-7s5.91-6.49,7.35-10.65c1.34-3.93,3.26-10.19,1.18-14.18-.8,6.48-3.1,13.93-7.48,18.91C667.68,50,663.56,54,661,53.68c-1.76-.19-.67-3.74-.45-5.11a112.74,112.74,0,0,0,1.34-22.92c-.16-7.67.32-15.56-1.66-23-.22,1.41-.38,8.54-1.56,9.24s-5-2.78-6-3.61C649.92,6,644.2-1,640.07.12a53.81,53.81,0,0,1,11.38,12.24c-3.1.77-6.55-1.37-9.23-2.65,2.62,2.11,4.73,4.09,7.92,5.33,2.62,1,5,2.43,6.23,5.08,2.72,5.95.51,14.51-.57,20.55-.74,4.12-1.28,8.31-2.69,12.27a94.91,94.91,0,0,1-5,11.7c-4,7.92-7.19,16.39-10.48,24.64l-10.1-1a23.58,23.58,0,0,0-7.32-18.79c-4.31-4.28-10.29-6.33-15.59-9.11-7.32-3.83-16.14-7.73-20.71-15-3.26-5.18-4.51-11.48-4.41-17.55.06-3.7,3.67-6.2,6.71-7.92,3.9-2.21,7.25-4.25,10-7.9-3.71,1-6.58,3.62-10.22,4.8,3.38-4.83,8-8.6,11.66-13.14-5.31,2.59-9.56,6.55-14.38,9.88-.77.54-2.68,2.33-3.58,1.47-.54-.51-.13-3-.13-3.65a63,63,0,0,0-1-10.16c-2.84,7.13-2.3,16.81-2.56,24.35a43.13,43.13,0,0,0,1,11.19,44.93,44.93,0,0,0,1.79,6.74c.77,2,2.08,3.48,2,5.72-2.33,0-6.36-6.71-7.67-8.37-2.65-3.39-5.52-6.65-8.34-9.88C568.3,41.5,574,51,583.9,56.33c4.25,2.3,8.56,4.47,12.81,6.84,5,2.78,10,5.46,13.36,10.29a138.94,138.94,0,0,0-21.16-1.92q-2.2,0-4.41,0c-2,0-3.06.61-3.7-1.4s-.58-4.61-2-6.49a20.55,20.55,0,0,0,.12,5.81c.2,2.15,0,4.25,2.21,5,3.35,1.08,7.86.22,11.37.64,3.81.44,7.67.92,11.44,1.59,4,.71,9.53,3.42,13.3,1,2.33,1.92,2.87,6.52,2.71,9.3-2.71.51-6.61-2.17-9-3.07-1.34-.47-5.91-2.36-7.19-1.37s-.13,4.51.45,5.72c1.44,3.07,4.28,5.27,7.22,6.84a8.18,8.18,0,0,0,2.49,1.15c2.24.29,5.24-.83,7.61-.83.8,6.26-2,13.84-3.61,19.75-1.95,7.25-4,14.51-5.79,21.79-1.15,4.63-2.11,9.3-3.35,13.9-1.06,4-2.24,7.89-3.58,11.76-.86,2.49-1.47,1.73-1.66-.67s-.35-5-.51-7.48l-31.48,16.68-16.3,8.63c-2.59,1.38-4.12,1.09-7.06,1-1.82-.06-4.31-.6-6.14-.19s-4.15,2.14-5.84,3.13c-2.3,1.31-4.57,2.72-6.78,4.19A114.6,114.6,0,0,0,506,208.66c1.82.07,4.18,0,5.59-1.08,1.6-1.19,2.56-3.17,4.31-4.35a162.74,162.74,0,0,0-1.56,17.64c-.1,2.88-.13,5.78-.07,8.66s-1.37,4.73-3,7a45.15,45.15,0,0,1-5.85,6.81c-1.72,1.66-4,2.9-5.65,4.6-1.34,1.4-1.89,4.25-2.66,6.16-1.21,3-2.46,5.92-3.8,8.79q-3.89,8.44-8.5,16.49c-1.31,2.3-2.68,4.6-4.09,6.84a22.7,22.7,0,0,1-2.11,3.29c-1.08,1.18-2.36,1.44-3.93,2-6,2.08-12,4.38-17.89,6.81-2.66,1.12-5.31,2.27-7.93,3.45a22.88,22.88,0,0,0-3.55,1.63c-1.43,1-.73.26-1,1.69a24.18,24.18,0,0,0,0,3.71v44.58c.87-2,1.95-4,2.62-6,.29-.83.48-.89.36-1.59s-1.41-1.83-1.38-2.59c.1-1.22,2.49-3.71,3.17-4.7l3.16-4.7c.86,1.41,1.69,2.81,2.56,4.22s2.84,3.58,3.1,5.15c.16.92-.71,1.91-.61,2.94.19,1.78,1.53,4,2.17,5.65.83,2.17,1.73,4.32,2.49,6.49.55,1.53.42,1.6-.32,3.19-.86,1.86-.76,2-.09,3.93s1.28,3.62,1.88,5.44c.42-1.28,1.51-3.13,1.51-4.48s-1.41-2.81-1.44-4.25a15.32,15.32,0,0,1,1-3.29c.67-2.17,1.31-4.31,2-6.49a14.37,14.37,0,0,0,1.09-3.51c0-1.18-1-2.27-.87-3.45.19-1.54,1.7-3.55,2.37-4.92s1.34-2.78,2-4.19c1,2.37,2,4.73,3,7.06.77,1.86.42,3.49.8,5.44.93,4.63,3.1,9.33,4.6,13.83a22.39,22.39,0,0,0,1.22-4.5c.06-1.31-1-2.59-1-3.9,0-2.59,1.88-6,2.75-8.44a15.28,15.28,0,0,0,1.24-3.51c0-1.06-.89-2.18-.77-3.23.16-1.34,1.63-3.2,2.21-4.41l2-4c1.25,2.71,3.26,5.75,4,8.66.22,1,0,2.07.16,3.1a40.33,40.33,0,0,0,1.47,4.69c.83,2.59,2.42,5.63,1.72,8.38-.86,3.32-.35,5.11.7,8.43.67-1.63,1.31-3.29,2-4.92s2.4-4.25,2.37-5.91-2.08-3-2.33-4.63c-.16-1,.41-1.83.89-2.88,2.08-4.51,4.16-9,6.23-13.55.74-1.57.93-1.5-.12-2.91-1.22-1.6-2.05-1.88-1.38-3.51,1-2.46,3.16-4.89,4.63-7.13,1.06-1.63,2.15-3.26,3.2-4.92,2.27,3.83,4.57,7.67,6.84,11.5,1.34,2.24,0,1.79-.19,4.35-.1,1.09.8,2.4,1.24,3.45,2.08,4.76,4.41,9.49,6.23,14.35.64,1.69.36,1.6-.83,3.26s-2,2.2-1.69,3.93c1,4.76,3.64,9.62,5.34,14.19.8-1.86,1.59-3.74,2.39-5.59,1-2.43,1.12-2.18-.7-4.16-1.37-1.5-1.34-1.31-.51-3.1,1-2.23,2.08-4.47,3.1-6.71.67-1.47,2.3-3.67,2.46-5.3.1-1.09-1.28-2.18-1.15-3.2.19-1.5,2.59-3.9,3.39-5.14,1-1.6,2.11-3.2,3.13-4.77.73,1.31,1.44,2.63,2.17,3.94.9,1.63,2.59,3.7,3,5.52.25,1.15-.64,1.67-.61,2.82s1.31,3.06,1.76,4.12c.92,2.14,1.82,4.25,2.75,6.39.38.93,1.72,2.88,1.66,3.9-.1,1.4-2.43,2.65-2.56,4.06-.13,1.08,1.18,3,1.63,4q2.6-6.27,5.18-12.56c.76-1.85,1.31-2.07.06-3.61s-2.46-2.17-2.11-3.77c.42-2.07,2-4.38,2.91-6.29,1.18-2.59,2.36-5.15,3.55-7.74.41-.89,1.53-2.52,1.37-3.42-.29-1.56-2.56-2.49-2.24-4,.42-2.14,3.14-5,4.32-6.81s2.39-3.77,3.58-5.65c2.23,3.77,4.63,7.47,6.77,11.31,1,1.79.26,2.3,0,4.38-.16,1.5.39,2.42,1,3.8,2.05,4.7,4.64,9.46,6.2,14.31.58,1.79.1,1.83-1.15,3.58-1.72,2.4-1.69,2.34-.51,5.08,1.5-3,3-6,4.51-9a31.46,31.46,0,0,0,2.39-4.79c.42-1.37.26-1.15-.7-2.62-.73-1.12-1.4-1.63-1.15-2.75.35-1.47,2-3.26,2.81-4.53,1.79-2.91,3.61-5.82,5.4-8.7,1.89,3.36,3.74,6.71,5.63,10,.57,1,1.88,2.55,2.08,3.7s-.8,2.43-.68,3.58c.16,1.38,1.19,3,1.7,4.29q1.44,3.63,2.87,7.28c1,2.46,3.55,6,2.08,8.37-1.12,1.79-2.49,2.72-2,4.67a50,50,0,0,0,2.65,6.23c.58-1.79,1.12-3.61,1.7-5.4.47-1.57,1.63-3.71,1.66-5.34,0-1.34-1.22-2.65-1.22-4,0-1.66,1.12-3.9,1.57-5.5.67-2.36,1.44-4.73,2-7.12.45-1.67-.25-2.27-.28-4,0-2.9,2.84-6.87,4.12-9.58,1.31,2.78,3.55,5.94,4.15,8.91.32,1.57-.09,3.26.23,4.83a45.79,45.79,0,0,0,2,5.56c.61-1.34,1.79-3,2.05-4.44.31-1.82-1.32-2.59-1-4.41.57-3,2.9-6.33,4.18-9.14,1.31,2.75,3.33,5.72,4.09,8.66.32,1.31.13,2.75.39,4.09.41,2,1.11,4.09,1.69,6.1.8,2.91,2.24,6,1.37,9a7.52,7.52,0,0,0-.51,4.19c.35,1.85,1,3.67,1.5,5.5.74-1.76,1.44-3.49,2.18-5.25.54-1.31,2.49-4.31,2.36-5.78s-2.49-2.65-2.55-4,1.88-4.12,2.42-5.33c1.06-2.3,2.31-4.6,3.2-7,.67-1.82-.54-2.43-.38-4.31.09-1.41,1.79-3.23,2.55-4.44,1.09-1.73,2.21-3.46,3.29-5.18,1.86,3,5.18,6.65,5.44,10.19a11.21,11.21,0,0,0,.57,4c.9,2.3,2,4.53,2.91,6.8.51,1.22,2.27,3.87,2.24,5.21s-2.46,2.62-2.62,4,1.63,4.18,2.11,5.37l2.1,5.37a6.3,6.3,0,0,0,.68-3.39c-.26-1.5-1.19-2-.93-3.68.48-2.87,2.11-5.88,3.1-8.62a7.75,7.75,0,0,0,.73-2.88c0-1.31-.79-2.27-.41-3.61.7-2.46,3-5.05,4.28-7.26,1.73,3.33,3.84,6.14,3.84,9.91,0,3.48,2.07,6.62,3.48,9.78a4.55,4.55,0,0,0,.64-2.78c-.16-1-.93-1.73-.58-2.91.58-1.92,2.69-4,3.81-5.72.92,1.76,2.1,3.55,2.84,5.4a16,16,0,0,1,.64,4.6c1-2.3.22-5.38.37-7.64l0-9.87C683.92,335.58,683.91,332.29,684,329ZM648,93c.92.41,1.59,1.76.12,1.66C646.91,94.6,646.91,93.38,648,93Zm-6.33-.35a2.07,2.07,0,0,1,2.55,1C643.17,94.31,639.88,93.93,641.64,92.65Zm4,5.43c1,.39,3.2,1.86,3,3.2s-2.78.13-4,.19c-.83.07-3.87.86-4.1-.77C640.29,99.43,644.77,98.15,645.6,98.08Zm-17.49-6.23c.74.45,4.92,2.88,4.7,4s-3.68,1-4.7.87C624.21,96.32,624.34,91.91,628.11,91.85ZM602,264.88q-17,1.88-33.86,4.16-8.29,1.11-16.59,2.37c-4.8.7-10.36,2.46-15.19,2,1.21-6.74,5.82-11.92,7.48-18.45,1.47-5.75.1-12.24-6.39-13.71a42.6,42.6,0,0,1-4.58,7.64c-.76,1-1.82,1.95-2.49,3a7.77,7.77,0,0,0-.86,3.68,141.16,141.16,0,0,1-3,17.91c-.54,2.39-.67,2.52-3,3.13-1.6.41-3.17.86-4.76,1.28-3.36.92-6.75,1.82-10.11,2.75L489.06,286c4.22-7.17,8.79-14.14,13.69-20.85,2.49-3.42,5.05-6.78,7.73-10,2.47-3.07,6.11-5.15,9.15-7.64,10.74-8.89,21-19.06,24.84-32.87,1.37,2.5.8,4.7,1.5,7.26,12-.06,26.92-.83,35.49-10.26a28.86,28.86,0,0,0,6.81-13.05,82.47,82.47,0,0,1,6.3-17.84c-.8,16.21,1.89,31.69,4.93,47.54C601.8,240.55,603.43,252.22,602,264.88Z" transform="translate(-7.39)" fill="#414141"/>
    <g>
      <path d="M7.82,371.13a1.88,1.88,0,0,1-.43-1.27V318.34a1.88,1.88,0,0,1,.43-1.27,1.48,1.48,0,0,1,1.19-.5,1.42,1.42,0,0,1,1.12.5,1.93,1.93,0,0,1,.42,1.27v51.52a1.93,1.93,0,0,1-.42,1.27,1.42,1.42,0,0,1-1.12.5A1.48,1.48,0,0,1,7.82,371.13Z" transform="translate(-7.39)" fill="#ab8a58"/>
      <path d="M123.12,318.34v51.52a1.93,1.93,0,0,1-.42,1.27,1.49,1.49,0,0,1-1.2.5,1.4,1.4,0,0,1-.84-.23,3.66,3.66,0,0,1-.7-.77L84.54,322.42v47.44a1.93,1.93,0,0,1-.42,1.27,1.39,1.39,0,0,1-1.12.5c-1,0-1.46-.59-1.46-1.77V318.34a1.88,1.88,0,0,1,.43-1.27,1.57,1.57,0,0,1,1.27-.5,1.45,1.45,0,0,1,.8.19,5,5,0,0,1,.74.74l35.34,48.2V318.34a1.93,1.93,0,0,1,.42-1.27,1.41,1.41,0,0,1,1.12-.5C122.63,316.57,123.12,317.16,123.12,318.34Z" transform="translate(-7.39)" fill="#ab8a58"/>
      <path d="M167.78,368.51a21.7,21.7,0,0,1-8.39-9.63,38.84,38.84,0,0,1,0-29.6,21.75,21.75,0,0,1,8.39-9.59,24.33,24.33,0,0,1,12.94-3.35,27,27,0,0,1,9.89,1.85,21.88,21.88,0,0,1,7.89,5.08,2.49,2.49,0,0,1,.77,1.85,1.75,1.75,0,0,1-.3,1,.94.94,0,0,1-.77.42,2,2,0,0,1-1.31-.61,29.48,29.48,0,0,0-8-5.09,23.18,23.18,0,0,0-8.36-1.38q-9.78,0-15.2,6.47t-5.43,18.09q0,11.7,5.39,18.17t15.24,6.47a23.1,23.1,0,0,0,8.4-1.38,29.82,29.82,0,0,0,7.93-5.09,2.56,2.56,0,0,1,1.31-.61.94.94,0,0,1,.77.42,1.75,1.75,0,0,1,.3,1,2.49,2.49,0,0,1-.77,1.85,22,22,0,0,1-7.89,5.08,27,27,0,0,1-9.89,1.85A24.33,24.33,0,0,1,167.78,368.51Z" transform="translate(-7.39)" fill="#ab8a58"/>
      <path d="M233.31,370.78a3.36,3.36,0,0,1,0-4.47,2.92,2.92,0,0,1,2.15-.84,2.84,2.84,0,0,1,2.08.84,3.36,3.36,0,0,1,0,4.47,2.84,2.84,0,0,1-2.08.85A2.92,2.92,0,0,1,233.31,370.78Z" transform="translate(-7.39)" fill="#ab8a58"/>
    </g>
    <g>
      <path d="M8,297a1.89,1.89,0,0,1-.42-1.31V244.48a1.51,1.51,0,0,1,.58-1.19,2,2,0,0,1,1.34-.5H27.12q8.39,0,13,4t4.62,11.4q0,7.4-4.66,11.47t-13,4.08H10.72v21.95a2,2,0,0,1-.39,1.31,1.41,1.41,0,0,1-1.15.46A1.53,1.53,0,0,1,8,297Zm29.8-29.49q3.59-3.17,3.58-9.32t-3.58-9.28Q34.2,245.79,27,245.79H10.72v24.87H27Q34.2,270.66,37.78,267.51Z" transform="translate(-7.39)" fill="#ab8a58"/>
      <path d="M86.83,292.34q-5.2-5.35-5.2-15.82V244.18a1.82,1.82,0,0,1,.43-1.31,1.52,1.52,0,0,1,1.19-.46,1.39,1.39,0,0,1,1.12.5,1.89,1.89,0,0,1,.42,1.27v32.88q0,17.47,17.4,17.47,8.55,0,12.94-4.38t4.39-13.09V244.18a1.68,1.68,0,0,1,.5-1.27,1.5,1.5,0,0,1,1.11-.5,1.49,1.49,0,0,1,1.16.5,1.77,1.77,0,0,1,.46,1.27v32.34q0,10.47-5.24,15.82t-15.32,5.35Q92,297.69,86.83,292.34Z" transform="translate(-7.39)" fill="#ab8a58"/>
      <path d="M192.94,273.86a13.79,13.79,0,0,1,2.57,8.51q0,7.23-4.54,11t-13,3.74H159a1.9,1.9,0,0,1-1.35-.54,1.57,1.57,0,0,1-.58-1.16v-50.9a1.51,1.51,0,0,1,.58-1.19,2,2,0,0,1,1.35-.5h18.09q8.23,0,12.71,3.66T194.28,257a12.56,12.56,0,0,1-2.27,7.58,13.51,13.51,0,0,1-6.35,4.66A12.55,12.55,0,0,1,192.94,273.86ZM160.33,268h16.4q6.93,0,10.55-2.93t3.61-8.47q0-10.77-14.16-10.78h-16.4Zm28.29,23.33q3.51-2.78,3.51-8.55T188.55,274q-3.59-3-10.67-3H160.33v23h17.55Q185.13,294.07,188.62,291.3Z" transform="translate(-7.39)" fill="#ab8a58"/>
      <path d="M231.17,296.61a1.3,1.3,0,0,1-.54-1V244.18a1.89,1.89,0,0,1,.42-1.27,1.45,1.45,0,0,1,1.19-.5c1,0,1.54.59,1.54,1.77v50h27.8a1.39,1.39,0,0,1,1.39,1.46,1.43,1.43,0,0,1-.43,1,1.33,1.33,0,0,1-1,.43H232.32A1.72,1.72,0,0,1,231.17,296.61Z" transform="translate(-7.39)" fill="#ab8a58"/>
      <path d="M307.82,297a1.91,1.91,0,0,1-.42-1.27V244.18a1.89,1.89,0,0,1,.42-1.27,1.45,1.45,0,0,1,1.19-.5,1.38,1.38,0,0,1,1.12.5,1.89,1.89,0,0,1,.42,1.27v51.51a1.91,1.91,0,0,1-.42,1.27,1.41,1.41,0,0,1-1.12.5A1.48,1.48,0,0,1,307.82,297Z" transform="translate(-7.39)" fill="#ab8a58"/>
      <path d="M358.25,295.8a20.88,20.88,0,0,1-8.28-5,2.51,2.51,0,0,1-.69-1.85,1.71,1.71,0,0,1,.31-1,.91.91,0,0,1,.77-.42,2.65,2.65,0,0,1,1.39.62,26.13,26.13,0,0,0,17.4,6.46q7.47,0,11.51-3a10.19,10.19,0,0,0,4-8.66,7.11,7.11,0,0,0-2-5.24,13.21,13.21,0,0,0-4.93-3,77.89,77.89,0,0,0-7.85-2.19q-6.71-1.62-10.24-2.85a15.87,15.87,0,0,1-6.36-4.2q-2.81-3-2.81-8.12a13.64,13.64,0,0,1,2.35-7.89,15,15,0,0,1,6.62-5.28,24.61,24.61,0,0,1,9.82-1.85A27.46,27.46,0,0,1,379.35,244,19.86,19.86,0,0,1,387,249.1a2.74,2.74,0,0,1,.77,1.85,1.59,1.59,0,0,1-.34,1,1.07,1.07,0,0,1-.81.43,1.83,1.83,0,0,1-1.31-.62,28.62,28.62,0,0,0-7.86-5.12,22.43,22.43,0,0,0-8.16-1.35q-7.32,0-11.39,3.16a10.52,10.52,0,0,0-4.09,8.85,8.38,8.38,0,0,0,1.81,5.55,12.57,12.57,0,0,0,4.62,3.39,46,46,0,0,0,7.05,2.3l3.31.77a73.56,73.56,0,0,1,9,2.51,14.53,14.53,0,0,1,5.89,4,10.41,10.41,0,0,1,2.43,7.24,12.85,12.85,0,0,1-2.35,7.62,15.39,15.39,0,0,1-6.62,5.16,24.43,24.43,0,0,1-9.82,1.85A32.09,32.09,0,0,1,358.25,295.8Z" transform="translate(-7.39)" fill="#ab8a58"/>
      <path d="M461.74,242.91a1.89,1.89,0,0,1,.42,1.27v51.51a1.91,1.91,0,0,1-.42,1.27,1.68,1.68,0,0,1-2.39,0,1.91,1.91,0,0,1-.42-1.27V271H422.35v24.72a1.91,1.91,0,0,1-.42,1.27,1.48,1.48,0,0,1-1.19.5,1.5,1.5,0,0,1-1.2-.5,1.91,1.91,0,0,1-.42-1.27V244.18a1.89,1.89,0,0,1,.42-1.27,1.47,1.47,0,0,1,1.2-.5,1.45,1.45,0,0,1,1.19.5,1.89,1.89,0,0,1,.42,1.27v23.87h36.58V244.18a1.89,1.89,0,0,1,.42-1.27,1.68,1.68,0,0,1,2.39,0Z" transform="translate(-7.39)" fill="#ab8a58"/>
      <path d="M508.17,297a1.91,1.91,0,0,1-.42-1.27V244.18a1.89,1.89,0,0,1,.42-1.27,1.45,1.45,0,0,1,1.19-.5,1.36,1.36,0,0,1,1.12.5,1.89,1.89,0,0,1,.42,1.27v51.51a1.91,1.91,0,0,1-.42,1.27,1.39,1.39,0,0,1-1.12.5A1.48,1.48,0,0,1,508.17,297Z" transform="translate(-7.39)" fill="#ab8a58"/>
      <path d="M598.07,244.18v51.51a1.91,1.91,0,0,1-.43,1.27,1.48,1.48,0,0,1-1.19.5,1.43,1.43,0,0,1-.85-.23,3.68,3.68,0,0,1-.69-.77l-35.42-48.2v47.43a1.91,1.91,0,0,1-.42,1.27,1.42,1.42,0,0,1-1.12.5c-1,0-1.46-.59-1.46-1.77V244.18a1.89,1.89,0,0,1,.42-1.27,1.54,1.54,0,0,1,1.27-.5,1.38,1.38,0,0,1,.81.19,4.87,4.87,0,0,1,.73.73l35.34,48.2V244.18a1.84,1.84,0,0,1,.43-1.27,1.36,1.36,0,0,1,1.11-.5Q598.07,242.41,598.07,244.18Z" transform="translate(-7.39)" fill="#ab8a58"/>
      <path d="M684.19,270.16a1.64,1.64,0,0,1,.42,1.2v21.48a1.39,1.39,0,0,1-.26.77,3.32,3.32,0,0,1-.66.69,32.33,32.33,0,0,1-7.82,2.47,49.56,49.56,0,0,1-9.58.92,26,26,0,0,1-13.36-3.27,21.26,21.26,0,0,1-8.55-9.55,39.13,39.13,0,0,1,0-29.76,21.71,21.71,0,0,1,8.43-9.59,24.52,24.52,0,0,1,13-3.35A27.93,27.93,0,0,1,675.91,244a20.49,20.49,0,0,1,7.78,5.08,3.17,3.17,0,0,1,.77,1.85,1.69,1.69,0,0,1-.31,1,1,1,0,0,1-.84.43,2,2,0,0,1-1.31-.62,29.38,29.38,0,0,0-7.94-5.08,22.6,22.6,0,0,0-8.31-1.39q-9.93,0-15.36,6.43T645,269.89q0,11.94,5.5,18.33t15.83,6.39a44.52,44.52,0,0,0,8.28-.77,30,30,0,0,0,7-2.16V272.82H668.06a1.76,1.76,0,0,1-1.31-.46,1.48,1.48,0,0,1-.46-1.08,1.46,1.46,0,0,1,.46-1.12,1.87,1.87,0,0,1,1.31-.42h15A1.51,1.51,0,0,1,684.19,270.16Z" transform="translate(-7.39)" fill="#ab8a58"/>
    </g>
    <g>
      <path d="M57,163.69a1.93,1.93,0,0,1,.43,1.27V216.4c0,1.23-.57,1.85-1.7,1.85-.92,0-1.38-.62-1.38-1.85V170.35L34.51,208.78a2.57,2.57,0,0,1-.81,1,1.92,1.92,0,0,1-1.12.34,2,2,0,0,1-1.92-1.3l-20-38.12V216.4c0,1.23-.51,1.85-1.54,1.85s-1.54-.62-1.54-1.85V165A1.93,1.93,0,0,1,8,163.69a1.58,1.58,0,0,1,1.27-.5,1.46,1.46,0,0,1,.85.27,2.81,2.81,0,0,1,.77,1l21.71,41.81L54.07,164.5a2.71,2.71,0,0,1,.77-1,1.54,1.54,0,0,1,.92-.27A1.57,1.57,0,0,1,57,163.69Z" transform="translate(-7.39)" fill="#ab8a58"/>
      <path d="M93.07,215.13a21.64,21.64,0,0,1-8.24-9.63,34.86,34.86,0,0,1-2.89-14.74,35.56,35.56,0,0,1,2.85-14.82,21.44,21.44,0,0,1,8.2-9.63A23.42,23.42,0,0,1,105.66,163a23.59,23.59,0,0,1,12.7,3.35,21.45,21.45,0,0,1,8.24,9.59,39.6,39.6,0,0,1,0,29.6,21.64,21.64,0,0,1-8.24,9.63,23.41,23.41,0,0,1-12.66,3.35A23.23,23.23,0,0,1,93.07,215.13Zm27.6-6.28q5.31-6.47,5.31-18.17t-5.27-18.13q-5.28-6.44-15-6.43t-14.94,6.43q-5.31,6.42-5.31,18.13t5.31,18.17q5.31,6.48,14.94,6.47T120.67,208.85Z" transform="translate(-7.39)" fill="#ab8a58"/>
      <path d="M161.44,213.13q-5.19-5.35-5.2-15.83V165a1.9,1.9,0,0,1,.43-1.31,1.56,1.56,0,0,1,1.19-.46,1.41,1.41,0,0,1,1.12.5,1.93,1.93,0,0,1,.42,1.27v32.88q0,17.49,17.4,17.48,8.55,0,12.94-4.39t4.39-13.09V165a1.71,1.71,0,0,1,.5-1.27,1.55,1.55,0,0,1,1.12-.5,1.51,1.51,0,0,1,1.15.5,1.8,1.8,0,0,1,.46,1.27V197.3q0,10.47-5.23,15.83t-15.33,5.35Q166.65,218.48,161.44,213.13Z" transform="translate(-7.39)" fill="#ab8a58"/>
      <path d="M272.13,165v51.52a1.93,1.93,0,0,1-.42,1.27,1.5,1.5,0,0,1-1.2.5,1.31,1.31,0,0,1-.84-.24,3.56,3.56,0,0,1-.7-.76L233.55,169v47.44a1.93,1.93,0,0,1-.42,1.27,1.41,1.41,0,0,1-1.12.5c-1,0-1.46-.59-1.46-1.77V165a1.93,1.93,0,0,1,.42-1.27,1.58,1.58,0,0,1,1.27-.5,1.47,1.47,0,0,1,.81.19,4.6,4.6,0,0,1,.73.74l35.35,48.2V165a1.93,1.93,0,0,1,.42-1.27,1.39,1.39,0,0,1,1.12-.5C271.64,163.19,272.13,163.78,272.13,165Z" transform="translate(-7.39)" fill="#ab8a58"/>
      <path d="M308.51,217.75a1.93,1.93,0,0,1-.42-1.27v-50H289.22a1.38,1.38,0,0,1-1-.38,1.67,1.67,0,0,1,0-2.12,1.3,1.3,0,0,1,1-.42h40.89a1.46,1.46,0,0,1,1,.42,1.35,1.35,0,0,1,.46,1,1.33,1.33,0,0,1-.46,1.08,1.56,1.56,0,0,1-1,.38H311.32v50a1.93,1.93,0,0,1-.42,1.27,1.68,1.68,0,0,1-2.39,0Z" transform="translate(-7.39)" fill="#ab8a58"/>
      <path d="M392.94,216.94a1.17,1.17,0,0,1-.42,1,1.59,1.59,0,0,1-1,.35,1.64,1.64,0,0,1-1.62-1.08l-6.23-14.32H352.9l-6.31,14.32a1.58,1.58,0,0,1-1.54,1.08,1.63,1.63,0,0,1-1.31-.54,1.3,1.3,0,0,1-.15-1.39l22.79-52a1.8,1.8,0,0,1,1.85-1.24,1.9,1.9,0,0,1,1.11.35,2,2,0,0,1,.73.89l22.72,52A2.54,2.54,0,0,1,392.94,216.94Zm-38.73-17.17h28l-14-32Z" transform="translate(-7.39)" fill="#ab8a58"/>
      <path d="M418.16,217.75a1.93,1.93,0,0,1-.42-1.27V165a1.93,1.93,0,0,1,.42-1.27,1.48,1.48,0,0,1,1.19-.5,1.41,1.41,0,0,1,1.12.5,1.93,1.93,0,0,1,.42,1.27v51.52a1.93,1.93,0,0,1-.42,1.27,1.41,1.41,0,0,1-1.12.5A1.48,1.48,0,0,1,418.16,217.75Z" transform="translate(-7.39)" fill="#ab8a58"/>
      <path d="M491.89,165v51.52a1.93,1.93,0,0,1-.43,1.27,1.48,1.48,0,0,1-1.19.5,1.36,1.36,0,0,1-.85-.24,3.56,3.56,0,0,1-.69-.76L453.31,169v47.44a1.93,1.93,0,0,1-.42,1.27,1.42,1.42,0,0,1-1.12.5c-1,0-1.46-.59-1.46-1.77V165a1.93,1.93,0,0,1,.42-1.27,1.57,1.57,0,0,1,1.27-.5,1.47,1.47,0,0,1,.81.19,5.06,5.06,0,0,1,.73.74l35.34,48.2V165a1.88,1.88,0,0,1,.43-1.27,1.39,1.39,0,0,1,1.11-.5Q491.89,163.19,491.89,165Z" transform="translate(-7.39)" fill="#ab8a58"/>
    </g>
    <g>
      <path d="M47.86,130.38a1.33,1.33,0,0,1-.43,1,1.42,1.42,0,0,1-1,.42,1.57,1.57,0,0,1-1.31-.76L34.61,114a13.76,13.76,0,0,0-4.89-5.24,15.23,15.23,0,0,0-7.12-1.38H11.05V130a1.89,1.89,0,0,1-.42,1.27,1.39,1.39,0,0,1-1.12.5,1.52,1.52,0,0,1-1.19-.46A1.82,1.82,0,0,1,7.89,130V78.79a1.54,1.54,0,0,1,.58-1.19,2,2,0,0,1,1.35-.51h19q8.39,0,13,3.82t4.58,11.2q0,6.63-4,10.39T31,106.82a8.8,8.8,0,0,1,3.28,2.08,21.13,21.13,0,0,1,3,3.92l10.32,16.71A2,2,0,0,1,47.86,130.38Zm-18.95-26.1Q43,104.28,43,92q0-6-3.47-9t-10.63-3H11.13v24.18Z" transform="translate(-7.39)" fill="#ab8a58"/>
      <path d="M92,128.65A21.7,21.7,0,0,1,83.78,119a34.89,34.89,0,0,1-2.89-14.74,35.64,35.64,0,0,1,2.85-14.83,21.47,21.47,0,0,1,8.2-9.62,23.41,23.41,0,0,1,12.66-3.35,23.61,23.61,0,0,1,12.71,3.35,21.45,21.45,0,0,1,8.24,9.59,35.27,35.27,0,0,1,2.85,14.78A35.08,35.08,0,0,1,125.51,119a21.76,21.76,0,0,1-8.24,9.63A23.42,23.42,0,0,1,104.6,132,23.22,23.22,0,0,1,92,128.65Zm27.6-6.28q5.31-6.47,5.31-18.17t-5.27-18.13q-5.28-6.43-15.06-6.43-9.61,0-14.93,6.43T84.35,104.2q0,11.7,5.32,18.17t14.93,6.47Q114.31,128.84,119.62,122.37Z" transform="translate(-7.39)" fill="#ab8a58"/>
      <path d="M167.74,128.65a21.75,21.75,0,0,1-8.39-9.63,34.77,34.77,0,0,1-2.93-14.82,34.49,34.49,0,0,1,2.93-14.78,21.75,21.75,0,0,1,8.39-9.59,24.33,24.33,0,0,1,12.94-3.35,26.76,26.76,0,0,1,9.89,1.85,22,22,0,0,1,7.9,5.08,2.53,2.53,0,0,1,.77,1.85,1.78,1.78,0,0,1-.31,1,.93.93,0,0,1-.77.42,2,2,0,0,1-1.31-.62,29.66,29.66,0,0,0-8-5.08,23.16,23.16,0,0,0-8.35-1.38q-9.78,0-15.21,6.46t-5.43,18.1q0,11.7,5.39,18.17t15.25,6.47a22.86,22.86,0,0,0,8.39-1.39,29.75,29.75,0,0,0,7.93-5.08,2.59,2.59,0,0,1,1.31-.62.94.94,0,0,1,.77.43,1.76,1.76,0,0,1,.31,1,2.55,2.55,0,0,1-.77,1.85,22.15,22.15,0,0,1-7.9,5.08,27,27,0,0,1-9.89,1.85A24.33,24.33,0,0,1,167.74,128.65Z" transform="translate(-7.39)" fill="#ab8a58"/>
      <path d="M267.84,130.23a1.44,1.44,0,0,1-.46,1.07,1.48,1.48,0,0,1-1.08.46,1.06,1.06,0,0,1-.77-.3L234,105.2V130a1.89,1.89,0,0,1-.42,1.27,1.38,1.38,0,0,1-1.12.5,1.45,1.45,0,0,1-1.19-.5,1.89,1.89,0,0,1-.42-1.27V78.48a1.91,1.91,0,0,1,.42-1.27,1.48,1.48,0,0,1,1.19-.5,1.41,1.41,0,0,1,1.12.5,1.91,1.91,0,0,1,.42,1.27v24.1l29.88-25.41a1.79,1.79,0,0,1,1-.38,1.43,1.43,0,0,1,1.46,1.46,1.37,1.37,0,0,1-.61,1.15L237,103.81l30.11,25.11A1.61,1.61,0,0,1,267.84,130.23Z" transform="translate(-7.39)" fill="#ab8a58"/>
      <path d="M330.67,76.79a1.29,1.29,0,0,1,1,.46,1.46,1.46,0,0,1,.42,1,2.17,2.17,0,0,1-.38,1.08L312,105.05V130a1.89,1.89,0,0,1-.42,1.27,1.68,1.68,0,0,1-2.39,0,1.89,1.89,0,0,1-.42-1.27V105L289,79.33a1.53,1.53,0,0,1-.31-1,1.56,1.56,0,0,1,.42-1.08,1.28,1.28,0,0,1,1-.46,1.55,1.55,0,0,1,1.23.69l19.09,24.87,19-24.87A1.71,1.71,0,0,1,330.67,76.79Z" transform="translate(-7.39)" fill="#ab8a58"/>
    </g>
  </g>
</svg>
